# xmcd
#
# Track frame offsets:
#	150
#	9385
#	23105
#	37200
#	47875
#	63448
#	74457
#	84532
#	98230
#	112348
#	129762
#	137323
#
# Disc length: 1971 seconds
#
# Revision: 0
# Processed by: cddbd v1.5.2PL0 Copyright (c) Steve Scherf et al.
# Submitted via: EasyCDDAExtractor 16.0.1.1
#
DISCID=a207b10c
DTITLE=Kay Austin - The Hit Kit
DYEAR=1977
DGENRE=Country
TTITLE0=Daddy Was A Preacher
TTITLE1=Crazy
TTITLE2=You Belong To Me
TTITLE3=You Believe In Me
TTITLE4=Silver Wings
TTITLE5=No Way Of Knowing
TTITLE6=Love
TTITLE7=Travelin' Band
TTITLE8=How Much Farther Can
TTITLE9=Paper Play House
TTITLE10=Intermission
TTITLE11=Johnny B  Goode
EXTD=
EXTT0=
EXTT1=
EXTT2=
EXTT3=
EXTT4=
EXTT5=
EXTT6=
EXTT7=
EXTT8=
EXTT9=
EXTT10=
EXTT11=
PLAYORDER=
